<svg width="18" height="25" viewBox="0 0 18 25" fill="none" xmlns="http://www.w3.org/2000/svg">
<g id="check_box_outline_blank">
<rect width="17.6462" height="24.8266" transform="translate(0 0.0791016)" fill="#6E1D1A"/>
<path id="icon" d="M3.67629 21.8023C3.2719 21.8023 2.92571 21.5998 2.63774 21.1946C2.34976 20.7895 2.20577 20.3024 2.20577 19.7335V5.25126C2.20577 4.68232 2.34976 4.19527 2.63774 3.79011C2.92571 3.38495 3.2719 3.18237 3.67629 3.18237H13.9699C14.3743 3.18237 14.7205 3.38495 15.0084 3.79011C15.2964 4.19527 15.4404 4.68232 15.4404 5.25126V19.7335C15.4404 20.3024 15.2964 20.7895 15.0084 21.1946C14.7205 21.5998 14.3743 21.8023 13.9699 21.8023H3.67629ZM3.67629 19.7335H13.9699V5.25126H3.67629V19.7335Z" fill="#1D1B20"/>
</g>
</svg>
