<svg width="17" height="18" viewBox="0 0 17 18" fill="none" xmlns="http://www.w3.org/2000/svg">
<path id="icon" d="M1.88889 17.5C1.36944 17.5 0.924769 17.315 0.554861 16.9451C0.184954 16.5752 0 16.1306 0 15.6111V2.38889C0 1.86944 0.184954 1.42477 0.554861 1.05486C0.924769 0.684954 1.36944 0.5 1.88889 0.5H15.1111C15.6306 0.5 16.0752 0.684954 16.4451 1.05486C16.815 1.42477 17 1.86944 17 2.38889V15.6111C17 16.1306 16.815 16.5752 16.4451 16.9451C16.0752 17.315 15.6306 17.5 15.1111 17.5H1.88889ZM1.88889 15.6111H15.1111V2.38889H1.88889V15.6111Z" fill="#828181"/>
</svg>
