<svg width="24" height="20" viewBox="0 0 24 20" fill="none" xmlns="http://www.w3.org/2000/svg">
<g id="send-alt-2-svgrepo-com 1">
<path id="Vector" d="M22.3999 12.0018H10.1026M2 7.71061H4.87098M3.14839 12.0018H4.87098M3.72259 16.2931H4.87098M9.99457 12.5271L8.97077 15.7015C8.58319 16.9033 8.38938 17.5042 8.55427 17.8629C8.69742 18.1744 8.98976 18.4045 9.34272 18.4832C9.74927 18.574 10.3501 18.2933 11.5518 17.732L20.5325 13.5371C21.5904 13.043 22.1195 12.7959 22.2892 12.4615C22.4369 12.1706 22.4369 11.8331 22.2892 11.5421C22.1195 11.2077 21.5904 10.9607 20.5325 10.4665L11.5395 6.26595C10.3411 5.70622 9.74196 5.42636 9.33581 5.5167C8.98315 5.59516 8.69085 5.82456 8.54731 6.13552C8.38198 6.49368 8.57371 7.09329 8.95718 8.29253L9.99581 11.5406C10.0545 11.7241 10.0838 11.8158 10.0954 11.9092C10.1057 11.9922 10.1056 12.0758 10.095 12.1588C10.0832 12.2522 10.0537 12.3438 9.99457 12.5271Z" stroke="#E2E2E2" stroke-width="2" stroke-linecap="round" stroke-linejoin="round"/>
</g>
</svg>
